<?xml version="1.0" encoding="utf-8" standalone="no"?>
<!DOCTYPE svg PUBLIC "-//W3C//DTD SVG 1.1//EN"
  "http://www.w3.org/Graphics/SVG/1.1/DTD/svg11.dtd">
<!-- Created with matplotlib (http://matplotlib.org/) -->
<svg height="256pt" version="1.1" viewBox="0 0 256 256" width="256pt" xmlns="http://www.w3.org/2000/svg" xmlns:xlink="http://www.w3.org/1999/xlink">
 <defs>
  <style type="text/css">
*{stroke-linecap:butt;stroke-linejoin:round;}
  </style>
 </defs>
 <g id="figure_1">
  <g id="patch_1">
   <path d="
M0 256.32
L256.32 256.32
L256.32 0
L0 0
L0 256.32" style="fill:none;"/>
  </g>
  <g id="axes_1">
   <g id="patch_2">
    <path clip-path="url(#pf7ad144dd5)" d="
M128.16 214.56
C143.436 214.56 158.088 205.456 168.889 189.254
C179.691 173.052 185.76 151.074 185.76 128.16
C185.76 105.246 179.691 83.2683 168.889 67.066
C158.088 50.8636 143.436 41.76 128.16 41.76
C112.884 41.76 98.2322 50.8636 87.4306 67.066
C76.6291 83.2683 70.56 105.246 70.56 128.16
C70.56 151.074 76.6291 173.052 87.4306 189.254
C98.2322 205.456 112.884 214.56 128.16 214.56
L128.16 214.56" style="fill:none;stroke:#ffffff;stroke-linejoin:miter;"/>
   </g>
   <g id="patch_3">
    <path clip-path="url(#pf7ad144dd5)" d="
M174.328 75.8103
L177.888 79.9558
L174.564 76.2739
L176.332 80.6003
L176.252 80.633
L174.484 76.3065
L174.689 81.2628
L174.328 75.8103" style="fill:none;stroke:#ffffff;stroke-linejoin:miter;stroke-width:0.1;"/>
   </g>
   <g id="patch_4">
    <path clip-path="url(#pf7ad144dd5)" d="
M207.757 57.8048
L206.102 61.5542
L205.175 60.7119
L179.514 88.9643
L179.45 88.9062
L205.111 60.6538
L204.184 59.8115
z
" style="fill:#ffffff;stroke:#ffffff;stroke-linejoin:miter;stroke-width:0.1;"/>
   </g>
   <g id="patch_5">
    <path clip-path="url(#pf7ad144dd5)" d="
M148.352 60.6602
L152.101 62.3149
L151.259 63.2423
L179.511 88.9032
L179.453 88.9672
L151.201 63.3062
L150.358 64.2336
z
" style="fill:#ffffff;stroke:#ffffff;stroke-linejoin:miter;stroke-width:0.1;"/>
   </g>
   <g id="line2d_1">
    <defs>
     <path d="
M0 5
C1.32602 5 2.5979 4.47317 3.53553 3.53553
C4.47317 2.5979 5 1.32602 5 0
C5 -1.32602 4.47317 -2.5979 3.53553 -3.53553
C2.5979 -4.47317 1.32602 -5 0 -5
C-1.32602 -5 -2.5979 -4.47317 -3.53553 -3.53553
C-4.47317 -2.5979 -5 -1.32602 -5 0
C-5 1.32602 -4.47317 2.5979 -3.53553 3.53553
C-2.5979 4.47317 -1.32602 5 0 5
z
" id="mafee27f82f"/>
    </defs>
    <g clip-path="url(#pf7ad144dd5)">
     <use style="fill:#ffffff;" x="179.481975793" xlink:href="#mafee27f82f" y="88.9352208225"/>
    </g>
   </g>
   <g id="line2d_2">
    <g clip-path="url(#pf7ad144dd5)">
     <use style="fill:#ffffff;" x="128.16" xlink:href="#mafee27f82f" y="145.44"/>
    </g>
   </g>
   <g id="line2d_3">
    <defs>
     <path d="
M3.06162e-16 -5
L-1.12257 -1.54508
L-4.75528 -1.54508
L-1.81636 0.59017
L-2.93893 4.04508
L-3.5083e-16 1.90983
L2.93893 4.04508
L1.81636 0.59017
L4.75528 -1.54508
L1.12257 -1.54508
z
" id="m03846112f1"/>
    </defs>
    <g clip-path="url(#pf7ad144dd5)">
     <use style="fill:#ffffff;" x="179.481975793" xlink:href="#m03846112f1" y="71.6552208225"/>
    </g>
   </g>
   <g id="line2d_4">
    <path clip-path="url(#pf7ad144dd5)" d="
M128.16 145.44
L179.482 88.9352" style="fill:none;stroke:#ffffff;stroke-dasharray:6.000000,6.000000;stroke-dashoffset:0.0;stroke-width:3.0;"/>
   </g>
   <g id="line2d_5">
    <path clip-path="url(#pf7ad144dd5)" d="
M128.16 145.44
L179.482 71.6552" style="fill:none;stroke:#ffffff;stroke-dasharray:6.000000,6.000000;stroke-dashoffset:0.0;stroke-width:3.0;"/>
   </g>
   <g id="line2d_6">
    <path clip-path="url(#pf7ad144dd5)" d="
M179.482 88.9352
L179.482 71.6552" style="fill:none;stroke:#ffffff;stroke-dasharray:1.000000,3.000000;stroke-dashoffset:0.0;stroke-width:3.0;"/>
   </g>
   <g id="text_1">
    <!-- Cluster -->
    <defs>
     <path d="
M54.2031 25
L15.4844 25
L15.4844 24.6094
Q15.4844 14.1094 19.4375 8.76562
Q23.3906 3.42188 31.1094 3.42188
Q37.0156 3.42188 40.7969 6.51562
Q44.5781 9.625 46.0938 15.7188
L53.3281 15.7188
Q51.1719 7.17188 45.375 2.875
Q39.5938 -1.42188 30.1719 -1.42188
Q18.7969 -1.42188 11.8906 6.07812
Q4.98438 13.5781 4.98438 25.9844
Q4.98438 38.2812 11.7656 45.7969
Q18.5625 53.3281 29.5938 53.3281
Q41.3594 53.3281 47.6562 46.0625
Q53.9531 38.8125 54.2031 25
M43.6094 30.1719
Q43.3125 39.2656 39.7656 43.875
Q36.2344 48.4844 29.5938 48.4844
Q23.3906 48.4844 19.8281 43.8438
Q16.2656 39.2031 15.4844 30.1719
z
" id="BitstreamVeraSerif-Roman-65"/>
     <path d="
M35.4062 51.9062
L52.2031 51.9062
L52.2031 5.17188
L60.6875 5.17188
L60.6875 0
L43.2188 0
L43.2188 9.1875
Q40.7188 4 36.7656 1.28125
Q32.8125 -1.42188 27.5938 -1.42188
Q18.9531 -1.42188 14.875 3.48438
Q10.7969 8.40625 10.7969 18.8906
L10.7969 46.6875
L2.6875 46.6875
L2.6875 51.9062
L19.8281 51.9062
L19.8281 21.6875
Q19.8281 12.2031 22.1406 8.6875
Q24.4688 5.17188 30.4219 5.17188
Q36.6719 5.17188 39.9375 9.76562
Q43.2188 14.3594 43.2188 23.0938
L43.2188 46.6875
L35.4062 46.6875
z
" id="BitstreamVeraSerif-Roman-75"/>
     <path d="
M10.7969 46.6875
L2.875 46.6875
L2.875 51.9062
L10.7969 51.9062
L10.7969 68.0156
L19.8281 68.0156
L19.8281 51.9062
L36.7188 51.9062
L36.7188 46.6875
L19.8281 46.6875
L19.8281 13.7188
Q19.8281 7.125 21.0938 5.26562
Q22.3594 3.42188 25.7812 3.42188
Q29.2969 3.42188 30.9062 5.48438
Q32.5156 7.5625 32.625 12.2031
L39.4062 12.2031
Q39.0156 5.125 35.5469 1.84375
Q32.0781 -1.42188 25 -1.42188
Q17.2344 -1.42188 14.0156 2.01562
Q10.7969 5.46875 10.7969 13.7188
z
" id="BitstreamVeraSerif-Roman-74"/>
     <path d="
M5.60938 2.875
L5.60938 14.9844
L10.7969 14.9844
Q10.9844 9.1875 14.4219 6.29688
Q17.875 3.42188 24.6094 3.42188
Q30.6719 3.42188 33.8438 5.6875
Q37.0156 7.95312 37.0156 12.3125
Q37.0156 15.7188 34.6875 17.8125
Q32.375 19.9219 24.9062 22.3125
L18.4062 24.5156
Q11.7188 26.6562 8.71875 29.875
Q5.71875 33.1094 5.71875 38.0938
Q5.71875 45.2188 10.9375 49.2656
Q16.1562 53.3281 25.3906 53.3281
Q29.5 53.3281 34.0312 52.25
Q38.5781 51.1719 43.4062 49.125
L43.4062 37.7969
L38.2344 37.7969
Q38.0312 42.8281 34.7031 45.6562
Q31.3906 48.4844 25.6875 48.4844
Q20.0156 48.4844 17.1094 46.4844
Q14.2031 44.4844 14.2031 40.4844
Q14.2031 37.2031 16.4062 35.2188
Q18.6094 33.25 25.2031 31.2031
L32.3281 29
Q39.7031 26.7031 42.9375 23.2656
Q46.1875 19.8281 46.1875 14.4062
Q46.1875 7.03125 40.5469 2.79688
Q34.9062 -1.42188 25 -1.42188
Q19.9688 -1.42188 15.1875 -0.34375
Q10.4062 0.734375 5.60938 2.875" id="BitstreamVeraSerif-Roman-73"/>
     <path d="
M47.7969 52
L47.7969 39.0156
L42.625 39.0156
Q42.3906 42.875 40.4844 44.7812
Q38.5781 46.6875 34.9062 46.6875
Q28.2656 46.6875 24.7188 42.0938
Q21.1875 37.5 21.1875 28.9062
L21.1875 5.17188
L31.5938 5.17188
L31.5938 0
L4.10938 0
L4.10938 5.17188
L12.2031 5.17188
L12.2031 46.7812
L3.60938 46.7812
L3.60938 51.9062
L21.1875 51.9062
L21.1875 42.6719
Q23.8281 48.0938 27.9688 50.7031
Q32.125 53.3281 38.0938 53.3281
Q40.2812 53.3281 42.7031 52.9844
Q45.125 52.6406 47.7969 52" id="BitstreamVeraSerif-Roman-72"/>
     <path d="
M20.5156 5.17188
L29 5.17188
L29 0
L2.875 0
L2.875 5.17188
L11.5312 5.17188
L11.5312 70.7969
L2.875 70.7969
L2.875 75.9844
L20.5156 75.9844
z
" id="BitstreamVeraSerif-Roman-6c"/>
     <path d="
M70.5156 19.2812
Q67.2812 9.07812 59.6875 3.82812
Q52.0938 -1.42188 40.4844 -1.42188
Q33.3438 -1.42188 27.2344 1.01562
Q21.1406 3.46875 16.4062 8.20312
Q10.9375 13.6719 8.26562 20.625
Q5.60938 27.5938 5.60938 36.375
Q5.60938 53.375 15.4219 63.7969
Q25.25 74.2188 41.3125 74.2188
Q47.2656 74.2188 54 72.6562
Q60.75 71.0938 68.5 67.9219
L68.5 51.125
L62.9844 51.125
Q61.1875 60.2969 55.7344 64.6406
Q50.2969 69 40.4844 69
Q28.8125 69 22.7969 60.7188
Q16.7969 52.4375 16.7969 36.375
Q16.7969 20.3594 22.7969 12.0781
Q28.8125 3.8125 40.4844 3.8125
Q48.6406 3.8125 53.9062 7.6875
Q59.1875 11.5781 61.5312 19.2812
z
" id="BitstreamVeraSerif-Roman-43"/>
    </defs>
    <g style="fill:#ffffff;" transform="translate(170.841975793 106.215220823)scale(0.11 -0.11)">
     <use xlink:href="#BitstreamVeraSerif-Roman-43"/>
     <use x="76.513671875" xlink:href="#BitstreamVeraSerif-Roman-6c"/>
     <use x="108.49609375" xlink:href="#BitstreamVeraSerif-Roman-75"/>
     <use x="172.900390625" xlink:href="#BitstreamVeraSerif-Roman-73"/>
     <use x="224.21875" xlink:href="#BitstreamVeraSerif-Roman-74"/>
     <use x="264.404296875" xlink:href="#BitstreamVeraSerif-Roman-65"/>
     <use x="323.583984375" xlink:href="#BitstreamVeraSerif-Roman-72"/>
    </g>
   </g>
   <g id="text_2">
    <!-- Galactic Center -->
    <defs>
     <path d="
M39.7969 16.3125
L39.7969 27.2969
L28.2188 27.2969
Q21.5312 27.2969 18.25 24.4062
Q14.9844 21.5312 14.9844 15.5781
Q14.9844 10.1562 18.2969 6.98438
Q21.625 3.8125 27.2969 3.8125
Q32.9062 3.8125 36.3438 7.28125
Q39.7969 10.75 39.7969 16.3125
M48.7812 32.4219
L48.7812 5.17188
L56.7812 5.17188
L56.7812 0
L39.7969 0
L39.7969 5.60938
Q36.8125 2 32.9062 0.28125
Q29 -1.42188 23.7812 -1.42188
Q15.1406 -1.42188 10.0625 3.17188
Q4.98438 7.76562 4.98438 15.5781
Q4.98438 23.6406 10.7969 28.0781
Q16.6094 32.5156 27.2031 32.5156
L39.7969 32.5156
L39.7969 36.0781
Q39.7969 42 36.2031 45.2344
Q32.625 48.4844 26.125 48.4844
Q20.75 48.4844 17.5781 46.0469
Q14.4062 43.6094 13.625 38.8125
L8.98438 38.8125
L8.98438 49.3125
Q13.6719 51.3125 18.0938 52.3125
Q22.5156 53.3281 26.7031 53.3281
Q37.5 53.3281 43.1406 47.9688
Q48.7812 42.625 48.7812 32.4219" id="BitstreamVeraSerif-Roman-61"/>
     <path d="
M51.4219 15.5781
Q49.5156 7.28125 44.0938 2.92188
Q38.6719 -1.42188 30.0781 -1.42188
Q18.75 -1.42188 11.8594 6.07812
Q4.98438 13.5781 4.98438 25.9844
Q4.98438 38.4219 11.8594 45.875
Q18.75 53.3281 30.0781 53.3281
Q35.0156 53.3281 39.8906 52.1719
Q44.7812 51.0312 49.7031 48.6875
L49.7031 35.4062
L44.4844 35.4062
Q43.4531 42.2344 40.0156 45.3594
Q36.5781 48.4844 30.1719 48.4844
Q22.9062 48.4844 19.1875 42.8438
Q15.4844 37.2031 15.4844 25.9844
Q15.4844 14.75 19.1719 9.07812
Q22.8594 3.42188 30.1719 3.42188
Q35.9844 3.42188 39.4531 6.4375
Q42.9219 9.46875 44.1875 15.5781
z
" id="BitstreamVeraSerif-Roman-63"/>
     <path id="BitstreamVeraSerif-Roman-20"/>
     <path d="
M9.71875 68.0156
Q9.71875 70.2656 11.3438 71.9219
Q12.9844 73.5781 15.2812 73.5781
Q17.5312 73.5781 19.1562 71.9219
Q20.7969 70.2656 20.7969 68.0156
Q20.7969 65.7188 19.1875 64.1094
Q17.5781 62.5 15.2812 62.5
Q12.9844 62.5 11.3438 64.1094
Q9.71875 65.7188 9.71875 68.0156
M21.1875 5.17188
L29.6875 5.17188
L29.6875 0
L3.60938 0
L3.60938 5.17188
L12.2031 5.17188
L12.2031 46.6875
L3.60938 46.6875
L3.60938 51.9062
L21.1875 51.9062
z
" id="BitstreamVeraSerif-Roman-69"/>
     <path d="
M4.10938 0
L4.10938 5.17188
L12.2031 5.17188
L12.2031 46.6875
L3.60938 46.6875
L3.60938 51.9062
L21.1875 51.9062
L21.1875 42.6719
Q23.6875 47.9531 27.6562 50.6406
Q31.6406 53.3281 36.9219 53.3281
Q45.5156 53.3281 49.5625 48.3906
Q53.6094 43.4531 53.6094 33.0156
L53.6094 5.17188
L61.625 5.17188
L61.625 0
L36.8125 0
L36.8125 5.17188
L44.5781 5.17188
L44.5781 30.1719
Q44.5781 39.7031 42.2344 43.2344
Q39.8906 46.7812 33.9844 46.7812
Q27.7344 46.7812 24.4531 42.2031
Q21.1875 37.6406 21.1875 28.9062
L21.1875 5.17188
L29 5.17188
L29 0
z
" id="BitstreamVeraSerif-Roman-6e"/>
     <path d="
M64.0156 51.125
Q62.3125 60.25 56.8906 64.625
Q51.4688 69 41.7969 69
Q29.2031 69 23 60.8906
Q16.7969 52.7812 16.7969 36.375
Q16.7969 20.3125 23.1875 12.0625
Q29.5938 3.8125 42 3.8125
Q47.5156 3.8125 52.5312 5.17188
Q57.5625 6.54688 62.1094 9.28125
L62.1094 28.0781
L48.3906 28.0781
L48.3906 33.2969
L72.0156 33.2969
L72.0156 6.10938
Q65.5312 2.34375 58.0312 0.453125
Q50.5312 -1.42188 42 -1.42188
Q25.4844 -1.42188 15.5469 8.90625
Q5.60938 19.2344 5.60938 36.375
Q5.60938 53.6562 15.5625 63.9375
Q25.5312 74.2188 42.3906 74.2188
Q48.6406 74.2188 55.2969 72.7812
Q61.9688 71.3438 69.4844 68.4062
L69.4844 51.125
z
" id="BitstreamVeraSerif-Roman-47"/>
    </defs>
    <g style="fill:#ffffff;" transform="translate(84.96 162.72)scale(0.11 -0.11)">
     <use xlink:href="#BitstreamVeraSerif-Roman-47"/>
     <use x="79.8828125" xlink:href="#BitstreamVeraSerif-Roman-61"/>
     <use x="139.501953125" xlink:href="#BitstreamVeraSerif-Roman-6c"/>
     <use x="171.484375" xlink:href="#BitstreamVeraSerif-Roman-61"/>
     <use x="231.103515625" xlink:href="#BitstreamVeraSerif-Roman-63"/>
     <use x="287.109375" xlink:href="#BitstreamVeraSerif-Roman-74"/>
     <use x="327.294921875" xlink:href="#BitstreamVeraSerif-Roman-69"/>
     <use x="359.27734375" xlink:href="#BitstreamVeraSerif-Roman-63"/>
     <use x="415.283203125" xlink:href="#BitstreamVeraSerif-Roman-20"/>
     <use x="447.0703125" xlink:href="#BitstreamVeraSerif-Roman-43"/>
     <use x="523.583984375" xlink:href="#BitstreamVeraSerif-Roman-65"/>
     <use x="582.763671875" xlink:href="#BitstreamVeraSerif-Roman-6e"/>
     <use x="647.16796875" xlink:href="#BitstreamVeraSerif-Roman-74"/>
     <use x="687.353515625" xlink:href="#BitstreamVeraSerif-Roman-65"/>
     <use x="746.533203125" xlink:href="#BitstreamVeraSerif-Roman-72"/>
    </g>
   </g>
   <g id="text_3">
    <!-- Star -->
    <defs>
     <path d="
M9.28125 3.51562
L9.28125 20.125
L14.8906 20.0625
Q15.1406 11.7656 19.7031 7.78125
Q24.2656 3.8125 33.5938 3.8125
Q42.2812 3.8125 46.8438 7.25
Q51.4219 10.6875 51.4219 17.2812
Q51.4219 22.5625 48.6562 25.3906
Q45.9062 28.2188 37.0156 30.9062
L27.3906 33.7969
Q16.9375 36.9688 12.6719 41.7031
Q8.40625 46.4375 8.40625 54.6875
Q8.40625 63.9688 14.9844 69.0938
Q21.5781 74.2188 33.5 74.2188
Q38.5781 74.2188 44.625 73.1094
Q50.6875 72.0156 57.5156 69.9219
L57.5156 54.3906
L52 54.3906
Q51.1719 62.1094 46.8438 65.5469
Q42.5312 69 33.6875 69
Q25.9844 69 21.9531 65.8438
Q17.9219 62.7031 17.9219 56.6875
Q17.9219 51.4688 20.9375 48.4844
Q23.9688 45.5156 33.7969 42.5781
L42.8281 39.8906
Q52.7344 36.9219 56.9531 32.2969
Q61.1875 27.6875 61.1875 19.9219
Q61.1875 9.32812 54.3906 3.95312
Q47.6094 -1.42188 34.1875 -1.42188
Q28.1719 -1.42188 21.9375 -0.1875
Q15.7188 1.03125 9.28125 3.51562" id="BitstreamVeraSerif-Roman-53"/>
    </defs>
    <g style="fill:#ffffff;" transform="translate(170.841975793 63.0152208225)scale(0.11 -0.11)">
     <use xlink:href="#BitstreamVeraSerif-Roman-53"/>
     <use x="68.505859375" xlink:href="#BitstreamVeraSerif-Roman-74"/>
     <use x="108.69140625" xlink:href="#BitstreamVeraSerif-Roman-61"/>
     <use x="168.310546875" xlink:href="#BitstreamVeraSerif-Roman-72"/>
    </g>
   </g>
   <g id="text_4">
    <!-- $\mathbf{R}$ -->
    <defs>
     <path d="
M3.42188 0
L3.42188 5.07812
L12.7969 5.07812
L12.7969 63.4844
L3.42188 63.4844
L3.42188 68.6094
L35.9844 68.6094
Q40.875 68.6094 45.5 67.6562
Q50.1406 66.7031 54.2188 64.5469
Q58.2969 62.4062 60.8281 58.7188
Q63.375 55.0312 63.375 49.9062
Q63.375 45.7969 61.3281 42.5781
Q59.2812 39.3594 55.9531 37.1562
Q52.6406 34.9688 48.5781 33.7969
Q52.5469 32.0781 55.3281 28.8594
Q58.1094 25.6406 58.5938 21.4844
L59.7188 12.7969
Q60.2969 8.29688 61.4688 5.57812
Q62.6406 2.875 65.8281 2.875
Q67.4844 2.875 68.5312 4.01562
Q69.5781 5.17188 70.0469 6.85938
Q70.5156 8.54688 70.5156 10.1094
Q70.7969 11.4219 72.125 11.7188
L74.0312 11.7188
Q75.5938 11.4219 75.5938 9.71875
Q75.5938 7.03125 74.3438 4.51562
Q73.0938 2 70.875 0.4375
Q68.6562 -1.125 65.9219 -1.125
Q56.8906 -1.125 50.4375 1.75
Q44 4.64062 44 12.4062
L44 21.0938
Q44 25.3906 41.9219 28.8594
Q39.8438 32.3281 35.7969 32.3281
L26.8125 32.3281
L26.8125 5.07812
L36.1875 5.07812
L36.1875 0
z

M26.8125 36.2812
L34.0781 36.2812
Q39.5938 36.2812 42.5 37.5
Q45.4062 38.7188 46.5469 41.5938
Q47.7031 44.4844 47.7031 49.9062
Q47.7031 55.375 46.625 58.25
Q45.5625 61.1406 42.6094 62.3125
Q39.6562 63.4844 34.0781 63.4844
L26.8125 63.4844
z
" id="Cmb10-52"/>
    </defs>
    <g style="fill:#ffffff;" transform="translate(152.196592738 128.557522082)scale(0.18 -0.18)">
     <use transform="translate(0.0 0.390625)" xlink:href="#Cmb10-52"/>
    </g>
   </g>
   <g id="text_5">
    <!-- $\mathbf{x}$ -->
    <defs>
     <path d="
M1.70312 0
L1.70312 5.07812
Q9.8125 5.07812 10.5938 6
L21.5781 21.0938
L9.1875 39.3125
L2.20312 39.3125
L2.20312 44.3906
L25.0938 44.3906
L25.0938 39.3125
L20.7969 39.3125
L27.5938 29.3906
L34.0781 38.4844
Q34.0781 38.9219 32.375 39.1094
Q30.6719 39.3125 29.5 39.3125
L29.5 44.3906
L49.3125 44.3906
L49.3125 39.3125
Q41.2188 39.3125 40.375 38.375
L30.6094 24.9062
L44 5.07812
L51.125 5.07812
L51.125 0
L28.0781 0
L28.0781 5.07812
L32.4219 5.07812
L24.6094 16.6094
L16.8906 5.90625
Q16.8906 5.5625 18.6406 5.3125
Q20.4062 5.07812 21.5781 5.07812
L21.5781 0
z
" id="Cmb10-78"/>
    </defs>
    <g style="fill:#ffffff;" transform="translate(153.820987897 99.9076104113)scale(0.18 -0.18)">
     <use transform="translate(0.0 0.609375)" xlink:href="#Cmb10-78"/>
    </g>
   </g>
   <g id="text_6">
    <!-- $\mathbf{r}$ -->
    <defs>
     <path d="
M1.42188 0
L1.42188 5.07812
L8.29688 5.07812
L8.29688 36.2812
Q8.29688 39.1094 1.42188 39.1094
L1.42188 44.1875
L18.4062 45.0156
L18.4062 36.8125
Q19.8281 40.5312 22.4375 42.7656
Q25.0469 45.0156 28.7188 45.0156
Q31.3438 45.0156 33.9531 44.0938
Q36.5781 43.1719 38.2812 41.2656
Q39.9844 39.3594 39.9844 36.625
Q39.9844 34.0312 38.1719 32.1719
Q36.375 30.3281 33.6875 30.3281
Q31 30.3281 29.1875 32.1719
Q27.3906 34.0312 27.3906 36.625
Q27.3906 39.2656 29 41.0156
L28.7188 41.0156
Q23.25 41.0156 21.3594 35.125
Q19.4844 29.25 19.4844 22.125
L19.4844 5.07812
L28.2188 5.07812
L28.2188 0
z
" id="Cmb10-72"/>
    </defs>
    <g style="fill:#ffffff;" transform="translate(183.801975793 81.1592208225)scale(0.18 -0.18)">
     <use transform="translate(0.0 0.984375)" xlink:href="#Cmb10-72"/>
    </g>
   </g>
   <g id="text_7">
    <!-- $x$ -->
    <defs>
     <path d="
M7.8125 2.875
Q9.57812 1.51562 12.7969 1.51562
Q15.9219 1.51562 18.3125 4.51562
Q20.7031 7.51562 21.5781 11.0781
L26.125 28.8125
Q27.2031 33.6406 27.2031 35.4062
Q27.2031 37.8906 25.8125 39.75
Q24.4219 41.6094 21.9219 41.6094
Q18.75 41.6094 15.9688 39.625
Q13.1875 37.6406 11.2812 34.5938
Q9.375 31.5469 8.59375 28.4219
Q8.40625 27.7812 7.8125 27.7812
L6.59375 27.7812
Q5.8125 27.7812 5.8125 28.7188
L5.8125 29
Q6.78125 32.7188 9.125 36.25
Q11.4688 39.7969 14.8594 41.9844
Q18.2656 44.1875 22.125 44.1875
Q25.7812 44.1875 28.7344 42.2344
Q31.6875 40.2812 32.9062 36.9219
Q34.625 39.9844 37.2812 42.0781
Q39.9375 44.1875 43.1094 44.1875
Q45.2656 44.1875 47.5 43.4219
Q49.75 42.6719 51.1719 41.1094
Q52.5938 39.5469 52.5938 37.2031
Q52.5938 34.6719 50.9531 32.8281
Q49.3125 31 46.7812 31
Q45.1719 31 44.0938 32.0312
Q43.0156 33.0625 43.0156 34.625
Q43.0156 36.7188 44.4531 38.2969
Q45.9062 39.8906 47.9062 40.1875
Q46.0938 41.6094 42.9219 41.6094
Q39.7031 41.6094 37.3281 38.625
Q34.9688 35.6406 33.9844 31.9844
L29.5938 14.3125
Q28.5156 10.2969 28.5156 7.71875
Q28.5156 5.17188 29.9531 3.34375
Q31.3906 1.51562 33.7969 1.51562
Q38.4844 1.51562 42.1562 5.64062
Q45.8438 9.76562 47.0156 14.7031
Q47.2188 15.2812 47.7969 15.2812
L49.0312 15.2812
Q49.4219 15.2812 49.6562 15.0156
Q49.9062 14.75 49.9062 14.4062
Q49.9062 14.3125 49.8125 14.1094
Q48.3906 8.15625 43.8438 3.51562
Q39.3125 -1.125 33.5938 -1.125
Q29.9375 -1.125 26.9844 0.84375
Q24.0312 2.82812 22.7969 6.20312
Q21.2344 3.26562 18.4688 1.0625
Q15.7188 -1.125 12.5938 -1.125
Q10.4531 -1.125 8.17188 -0.359375
Q5.90625 0.390625 4.48438 1.95312
Q3.07812 3.51562 3.07812 5.90625
Q3.07812 8.25 4.70312 10.1719
Q6.34375 12.1094 8.79688 12.1094
Q10.4531 12.1094 11.5781 11.1094
Q12.7031 10.1094 12.7031 8.5
Q12.7031 6.39062 11.2969 4.82812
Q9.90625 3.26562 7.8125 2.875" id="Cmmi10-78"/>
    </defs>
    <g style="fill:#ffffff;" transform="translate(207.73496369 62.4108312338)scale(0.18 -0.18)">
     <use transform="translate(0.0 0.8125)" xlink:href="#Cmmi10-78"/>
    </g>
   </g>
   <g id="text_8">
    <!-- $y$ -->
    <defs>
     <path d="
M8.40625 -14.3125
Q10.5 -17.9219 15.7188 -17.9219
Q20.4531 -17.9219 23.9219 -14.5938
Q27.3906 -11.2812 29.5156 -6.5625
Q31.6406 -1.85938 32.8125 3.07812
Q28.375 -1.125 23.1875 -1.125
Q19.2344 -1.125 16.4531 0.234375
Q13.6719 1.60938 12.125 4.3125
Q10.5938 7.03125 10.5938 10.8906
Q10.5938 14.1562 11.4688 17.5938
Q12.3594 21.0469 13.9375 25.2656
Q15.5312 29.5 16.7031 32.625
Q18.0156 36.2812 18.0156 38.625
Q18.0156 41.6094 15.8281 41.6094
Q11.8594 41.6094 9.29688 37.5312
Q6.73438 33.4531 5.51562 28.4219
Q5.32812 27.7812 4.6875 27.7812
L3.51562 27.7812
Q2.6875 27.7812 2.6875 28.7188
L2.6875 29
Q4.29688 34.9688 7.60938 39.5781
Q10.9375 44.1875 16.0156 44.1875
Q19.5781 44.1875 22.0469 41.8438
Q24.5156 39.5 24.5156 35.8906
Q24.5156 34.0312 23.6875 31.9844
Q23.25 30.7656 21.6875 26.6562
Q20.125 22.5625 19.2812 19.875
Q18.4531 17.1875 17.9219 14.5938
Q17.3906 12.0156 17.3906 9.42188
Q17.3906 6.10938 18.7969 3.8125
Q20.2188 1.51562 23.2969 1.51562
Q29.5 1.51562 34.4219 9.07812
L42 39.8906
Q42.3281 41.2188 43.5469 42.1562
Q44.7812 43.1094 46.1875 43.1094
Q47.4062 43.1094 48.3125 42.3281
Q49.2188 41.5469 49.2188 40.2812
Q49.2188 39.7031 49.125 39.5
L39.2031 -0.296875
Q37.8906 -5.42188 34.375 -10.1094
Q30.8594 -14.7969 25.9062 -17.6562
Q20.9531 -20.5156 15.5781 -20.5156
Q12.9844 -20.5156 10.4375 -19.5
Q7.90625 -18.5 6.34375 -16.5
Q4.78125 -14.5 4.78125 -11.8125
Q4.78125 -9.07812 6.39062 -7.07812
Q8.01562 -5.07812 10.6875 -5.07812
Q12.3125 -5.07812 13.4062 -6.07812
Q14.5 -7.07812 14.5 -8.6875
Q14.5 -10.9844 12.7812 -12.6875
Q11.0781 -14.4062 8.79688 -14.4062
Q8.6875 -14.3594 8.59375 -14.3281
Q8.5 -14.3125 8.40625 -14.3125" id="Cmmi10-79"/>
    </defs>
    <g style="fill:#ffffff;" transform="translate(146.909586205 58.9542329259)scale(0.18 -0.18)">
     <use transform="translate(0.0 0.8125)" xlink:href="#Cmmi10-79"/>
    </g>
   </g>
  </g>
 </g>
 <defs>
  <clipPath id="pf7ad144dd5">
   <rect height="241.92" width="241.92" x="7.2" y="7.2"/>
  </clipPath>
 </defs>
</svg>
