<?xml version="1.0" encoding="utf-8" standalone="no"?>
<!DOCTYPE svg PUBLIC "-//W3C//DTD SVG 1.1//EN"
  "http://www.w3.org/Graphics/SVG/1.1/DTD/svg11.dtd">
<!-- Created with matplotlib (http://matplotlib.org/) -->
<svg height="432pt" version="1.1" viewBox="0 0 576 432" width="576pt" xmlns="http://www.w3.org/2000/svg" xmlns:xlink="http://www.w3.org/1999/xlink">
 <defs>
  <style type="text/css">
*{stroke-linecap:butt;stroke-linejoin:round;}
  </style>
 </defs>
 <g id="figure_1">
  <g id="patch_1">
   <path d="
M0 432
L576 432
L576 0
L0 0
L0 432" style="fill:none;"/>
  </g>
  <g id="axes_1">
   <g id="patch_2">
    <path d="
M72 388.8
L518.4 388.8
L518.4 43.2
L72 43.2
L72 388.8" style="fill:none;"/>
   </g>
   <g id="matplotlib.axis_1">
    <g id="xtick_1">
     <g id="line2d_1">
      <defs>
       <path d="
M0 0
L0 -3" id="m82c5fd54db" style="stroke:#ffffff;"/>
      </defs>
      <g>
       <use style="fill:#ffffff;stroke:#ffffff;" x="72.0" xlink:href="#m82c5fd54db" y="388.8"/>
      </g>
     </g>
     <g id="line2d_2">
      <defs>
       <path d="
M0 0
L0 3" id="mc597b7b636" style="stroke:#ffffff;"/>
      </defs>
      <g>
       <use style="fill:#ffffff;stroke:#ffffff;" x="72.0" xlink:href="#mc597b7b636" y="43.2"/>
      </g>
     </g>
     <g id="text_1">
      <!-- −1.5 -->
      <defs>
       <path d="
M10.5938 35.2969
L73.1875 35.2969
L73.1875 27.3906
L10.5938 27.3906
z
" id="BitstreamVeraSerif-Roman-2212"/>
       <path d="
M14.2031 0
L14.2031 5.17188
L26.9062 5.17188
L26.9062 65.8281
L12.2031 56.2969
L12.2031 62.7031
L29.9844 74.2188
L36.7188 74.2188
L36.7188 5.17188
L49.4219 5.17188
L49.4219 0
z
" id="BitstreamVeraSerif-Roman-31"/>
       <path d="
M9.42188 5.07812
Q9.42188 7.8125 11.2812 9.71875
Q13.1406 11.625 15.9219 11.625
Q18.6094 11.625 20.5 9.71875
Q22.4062 7.8125 22.4062 5.07812
Q22.4062 2.39062 20.5 0.484375
Q18.6094 -1.42188 15.9219 -1.42188
Q13.1406 -1.42188 11.2812 0.453125
Q9.42188 2.34375 9.42188 5.07812" id="BitstreamVeraSerif-Roman-2e"/>
       <path d="
M50.2969 72.9062
L50.2969 64.8906
L16.8906 64.8906
L16.8906 44
Q19.4375 45.75 22.8281 46.625
Q26.2188 47.5156 30.4219 47.5156
Q42.2344 47.5156 49.0625 40.9688
Q55.9062 34.4219 55.9062 23.0938
Q55.9062 11.5312 49 5.04688
Q42.0938 -1.42188 29.5938 -1.42188
Q24.5625 -1.42188 19.2812 -0.1875
Q14.0156 1.03125 8.5 3.51562
L8.5 17.6719
L14.0156 17.6719
Q14.4531 10.75 18.4219 7.07812
Q22.4062 3.42188 29.5938 3.42188
Q37.3125 3.42188 41.4531 8.5
Q45.6094 13.5781 45.6094 23.0938
Q45.6094 32.5625 41.4844 37.6094
Q37.3594 42.6719 29.5938 42.6719
Q25.2031 42.6719 21.8438 41.1094
Q18.5 39.5469 15.9219 36.2812
L11.7188 36.2812
L11.7188 72.9062
z
" id="BitstreamVeraSerif-Roman-35"/>
      </defs>
      <g style="fill:#ffffff;" transform="translate(51.79359375 405.9771875)scale(0.18 -0.18)">
       <use xlink:href="#BitstreamVeraSerif-Roman-2212"/>
       <use x="83.7890625" xlink:href="#BitstreamVeraSerif-Roman-31"/>
       <use x="147.412109375" xlink:href="#BitstreamVeraSerif-Roman-2e"/>
       <use x="179.19921875" xlink:href="#BitstreamVeraSerif-Roman-35"/>
      </g>
     </g>
    </g>
    <g id="xtick_2">
     <g id="line2d_3">
      <g>
       <use style="fill:#ffffff;stroke:#ffffff;" x="146.4" xlink:href="#m82c5fd54db" y="388.8"/>
      </g>
     </g>
     <g id="line2d_4">
      <g>
       <use style="fill:#ffffff;stroke:#ffffff;" x="146.4" xlink:href="#mc597b7b636" y="43.2"/>
      </g>
     </g>
     <g id="text_2">
      <!-- −1.0 -->
      <defs>
       <path d="
M31.7812 3.42188
Q39.2656 3.42188 42.9688 11.625
Q46.6875 19.8281 46.6875 36.375
Q46.6875 52.9844 42.9688 61.1875
Q39.2656 69.3906 31.7812 69.3906
Q24.3125 69.3906 20.5938 61.1875
Q16.8906 52.9844 16.8906 36.375
Q16.8906 19.8281 20.5938 11.625
Q24.3125 3.42188 31.7812 3.42188
M31.7812 -1.42188
Q19.9219 -1.42188 13.25 8.53125
Q6.59375 18.5 6.59375 36.375
Q6.59375 54.2969 13.25 64.25
Q19.9219 74.2188 31.7812 74.2188
Q43.7031 74.2188 50.3438 64.25
Q56.9844 54.2969 56.9844 36.375
Q56.9844 18.5 50.3438 8.53125
Q43.7031 -1.42188 31.7812 -1.42188" id="BitstreamVeraSerif-Roman-30"/>
      </defs>
      <g style="fill:#ffffff;" transform="translate(126.0965625 405.9771875)scale(0.18 -0.18)">
       <use xlink:href="#BitstreamVeraSerif-Roman-2212"/>
       <use x="83.7890625" xlink:href="#BitstreamVeraSerif-Roman-31"/>
       <use x="147.412109375" xlink:href="#BitstreamVeraSerif-Roman-2e"/>
       <use x="179.19921875" xlink:href="#BitstreamVeraSerif-Roman-30"/>
      </g>
     </g>
    </g>
    <g id="xtick_3">
     <g id="line2d_5">
      <g>
       <use style="fill:#ffffff;stroke:#ffffff;" x="220.8" xlink:href="#m82c5fd54db" y="388.8"/>
      </g>
     </g>
     <g id="line2d_6">
      <g>
       <use style="fill:#ffffff;stroke:#ffffff;" x="220.8" xlink:href="#mc597b7b636" y="43.2"/>
      </g>
     </g>
     <g id="text_3">
      <!-- −0.5 -->
      <g style="fill:#ffffff;" transform="translate(200.59359375 405.9771875)scale(0.18 -0.18)">
       <use xlink:href="#BitstreamVeraSerif-Roman-2212"/>
       <use x="83.7890625" xlink:href="#BitstreamVeraSerif-Roman-30"/>
       <use x="147.412109375" xlink:href="#BitstreamVeraSerif-Roman-2e"/>
       <use x="179.19921875" xlink:href="#BitstreamVeraSerif-Roman-35"/>
      </g>
     </g>
    </g>
    <g id="xtick_4">
     <g id="line2d_7">
      <g>
       <use style="fill:#ffffff;stroke:#ffffff;" x="295.2" xlink:href="#m82c5fd54db" y="388.8"/>
      </g>
     </g>
     <g id="line2d_8">
      <g>
       <use style="fill:#ffffff;stroke:#ffffff;" x="295.2" xlink:href="#mc597b7b636" y="43.2"/>
      </g>
     </g>
     <g id="text_4">
      <!-- 0.0 -->
      <g style="fill:#ffffff;" transform="translate(282.07828125 405.9771875)scale(0.18 -0.18)">
       <use xlink:href="#BitstreamVeraSerif-Roman-30"/>
       <use x="63.623046875" xlink:href="#BitstreamVeraSerif-Roman-2e"/>
       <use x="95.41015625" xlink:href="#BitstreamVeraSerif-Roman-30"/>
      </g>
     </g>
    </g>
    <g id="xtick_5">
     <g id="line2d_9">
      <g>
       <use style="fill:#ffffff;stroke:#ffffff;" x="369.6" xlink:href="#m82c5fd54db" y="388.8"/>
      </g>
     </g>
     <g id="line2d_10">
      <g>
       <use style="fill:#ffffff;stroke:#ffffff;" x="369.6" xlink:href="#mc597b7b636" y="43.2"/>
      </g>
     </g>
     <g id="text_5">
      <!-- 0.5 -->
      <g style="fill:#ffffff;" transform="translate(356.5753125 405.9771875)scale(0.18 -0.18)">
       <use xlink:href="#BitstreamVeraSerif-Roman-30"/>
       <use x="63.623046875" xlink:href="#BitstreamVeraSerif-Roman-2e"/>
       <use x="95.41015625" xlink:href="#BitstreamVeraSerif-Roman-35"/>
      </g>
     </g>
    </g>
    <g id="xtick_6">
     <g id="line2d_11">
      <g>
       <use style="fill:#ffffff;stroke:#ffffff;" x="444.0" xlink:href="#m82c5fd54db" y="388.8"/>
      </g>
     </g>
     <g id="line2d_12">
      <g>
       <use style="fill:#ffffff;stroke:#ffffff;" x="444.0" xlink:href="#mc597b7b636" y="43.2"/>
      </g>
     </g>
     <g id="text_6">
      <!-- 1.0 -->
      <g style="fill:#ffffff;" transform="translate(431.383125 405.9771875)scale(0.18 -0.18)">
       <use xlink:href="#BitstreamVeraSerif-Roman-31"/>
       <use x="63.623046875" xlink:href="#BitstreamVeraSerif-Roman-2e"/>
       <use x="95.41015625" xlink:href="#BitstreamVeraSerif-Roman-30"/>
      </g>
     </g>
    </g>
    <g id="xtick_7">
     <g id="line2d_13">
      <g>
       <use style="fill:#ffffff;stroke:#ffffff;" x="518.4" xlink:href="#m82c5fd54db" y="388.8"/>
      </g>
     </g>
     <g id="line2d_14">
      <g>
       <use style="fill:#ffffff;stroke:#ffffff;" x="518.4" xlink:href="#mc597b7b636" y="43.2"/>
      </g>
     </g>
     <g id="text_7">
      <!-- 1.5 -->
      <g style="fill:#ffffff;" transform="translate(505.88015625 405.9771875)scale(0.18 -0.18)">
       <use xlink:href="#BitstreamVeraSerif-Roman-31"/>
       <use x="63.623046875" xlink:href="#BitstreamVeraSerif-Roman-2e"/>
       <use x="95.41015625" xlink:href="#BitstreamVeraSerif-Roman-35"/>
      </g>
     </g>
    </g>
   </g>
   <g id="line2d_15">
    <path clip-path="url(#p7ff5b81e1d)" d="
M158.344 -1
L160.932 6.66547
L163.521 13.6556
L166.155 20.1406
L168.834 26.1544
L171.557 31.7278
L174.325 36.889
L177.138 41.664
L179.995 46.0769
L182.897 50.1502
L185.843 53.9048
L188.835 57.3604
L191.915 60.5798
L195.04 63.5276
L198.255 66.2574
L201.558 68.775
L204.996 71.1157
L208.567 73.2773
L212.273 75.2598
L216.157 77.0851
L220.264 78.7664
L224.595 80.296
L229.193 81.6822
L234.104 82.9294
L239.417 84.0472
L245.221 85.0375
L251.605 85.897
L258.703 86.6236
L266.695 87.2132
L275.757 87.654
L285.981 87.9252
L297.097 87.9969
L308.214 87.8492
L318.393 87.4972
L327.366 86.9696
L335.224 86.2895
L342.188 85.4674
L348.439 84.5086
L354.108 83.4166
L359.287 82.1965
L364.109 80.8341
L368.618 79.3293
L372.814 77.6973
L376.788 75.9169
L380.583 73.9742
L384.199 71.8745
L387.681 69.5957
L391.029 67.1391
L394.288 64.4701
L397.414 61.625
L400.494 58.5175
L403.485 55.182
L406.432 51.558
L409.289 47.6901
L412.102 43.5075
L414.869 38.9906
L417.593 34.1184
L420.271 28.8686
L422.905 23.217
L425.495 17.1374
L428.084 10.4815
L430.629 3.31559
L432.056 -1
L432.056 -1" style="fill:none;stroke:#ffffff;stroke-linecap:round;stroke-width:3.0;"/>
   </g>
   <g id="line2d_16">
    <path clip-path="url(#p7ff5b81e1d)" d="
M158.344 433
L160.932 425.335
L163.521 418.344
L166.155 411.859
L168.834 405.846
L171.557 400.272
L174.325 395.111
L177.138 390.336
L179.995 385.923
L182.897 381.85
L185.843 378.095
L188.835 374.64
L191.915 371.42
L195.04 368.472
L198.255 365.743
L201.558 363.225
L204.996 360.884
L208.567 358.723
L212.273 356.74
L216.157 354.915
L220.264 353.234
L224.595 351.704
L229.193 350.318
L234.104 349.071
L239.417 347.953
L245.221 346.962
L251.605 346.103
L258.703 345.376
L266.695 344.787
L275.757 344.346
L285.981 344.075
L297.097 344.003
L308.214 344.151
L318.393 344.503
L327.366 345.03
L335.224 345.71
L342.188 346.533
L348.439 347.491
L354.108 348.583
L359.287 349.804
L364.109 351.166
L368.618 352.671
L372.814 354.303
L376.788 356.083
L380.583 358.026
L384.199 360.125
L387.681 362.404
L391.029 364.861
L394.288 367.53
L397.414 370.375
L400.494 373.483
L403.485 376.818
L406.432 380.442
L409.289 384.31
L412.102 388.493
L414.869 393.009
L417.593 397.882
L420.271 403.131
L422.905 408.783
L425.495 414.863
L428.084 421.518
L430.629 428.684
L432.056 433
L432.056 433" style="fill:none;stroke:#ffffff;stroke-linecap:round;stroke-width:3.0;"/>
   </g>
   <g id="line2d_17">
    <path clip-path="url(#p7ff5b81e1d)" d="
M112.303 -1
L114.635 10.6532
L117.046 21.5801
L119.502 31.6839
L122.002 41.0315
L124.502 49.536
L127.047 57.4186
L129.636 64.7196
L132.225 71.3654
L134.859 77.5165
L137.493 83.1085
L140.127 88.1896
L142.806 92.8767
L145.485 97.1187
L148.163 100.951
L150.887 104.46
L153.61 107.608
L156.378 110.467
L159.146 113.008
L161.959 115.292
L164.816 117.327
L167.762 119.151
L170.754 120.743
L173.834 122.132
L177.048 123.338
L180.397 124.358
L183.924 125.199
L187.674 125.865
L191.692 126.352
L196.067 126.656
L200.933 126.766
L206.424 126.661
L212.809 126.31
L220.755 125.638
L232.541 124.393
L254.819 122.025
L265.846 121.101
L275.757 120.491
L285.222 120.131
L294.463 120.001
L303.66 120.094
L312.991 120.412
L322.634 120.965
L332.947 121.783
L344.912 122.964
L376.922 126.262
L383.842 126.656
L389.601 126.766
L394.601 126.643
L399.11 126.313
L403.217 125.79
L407.012 125.086
L410.584 124.197
L413.932 123.138
L417.146 121.889
L420.227 120.453
L423.218 118.813
L426.12 116.966
L428.932 114.914
L431.7 112.619
L434.424 110.072
L437.102 107.264
L439.781 104.131
L442.415 100.708
L445.049 96.9166
L447.683 92.7278
L450.273 88.1896
L452.862 83.1987
L455.451 77.7149
L457.996 71.8011
L460.541 65.3174
L463.041 58.3368
L465.541 50.6875
L467.996 42.4527
L470.407 33.5913
L472.818 23.8684
L475.184 13.3819
L477.506 2.06453
L478.097 -1
L478.097 -1" style="fill:none;stroke:#ffffff;stroke-linecap:round;stroke-width:3.0;"/>
   </g>
   <g id="line2d_18">
    <path clip-path="url(#p7ff5b81e1d)" d="
M112.303 433
L114.635 421.347
L117.046 410.42
L119.502 400.316
L122.002 390.968
L124.502 382.464
L127.047 374.581
L129.636 367.28
L132.225 360.635
L134.859 354.483
L137.493 348.892
L140.127 343.81
L142.806 339.123
L145.485 334.881
L148.163 331.049
L150.887 327.54
L153.61 324.392
L156.378 321.533
L159.146 318.992
L161.959 316.708
L164.816 314.673
L167.762 312.849
L170.754 311.257
L173.834 309.868
L177.048 308.662
L180.397 307.642
L183.924 306.801
L187.674 306.135
L191.692 305.648
L196.067 305.344
L200.933 305.234
L206.424 305.339
L212.809 305.69
L220.755 306.362
L232.541 307.607
L254.819 309.975
L265.846 310.899
L275.757 311.509
L285.222 311.869
L294.463 311.999
L303.66 311.906
L312.991 311.588
L322.634 311.035
L332.947 310.217
L344.912 309.036
L376.922 305.738
L383.842 305.344
L389.601 305.234
L394.601 305.357
L399.11 305.687
L403.217 306.21
L407.012 306.914
L410.584 307.803
L413.932 308.862
L417.146 310.111
L420.227 311.547
L423.218 313.187
L426.12 315.034
L428.932 317.086
L431.7 319.381
L434.424 321.928
L437.102 324.736
L439.781 327.869
L442.415 331.292
L445.049 335.083
L447.683 339.272
L450.273 343.81
L452.862 348.801
L455.451 354.285
L457.996 360.199
L460.541 366.683
L463.041 373.663
L465.541 381.312
L467.996 389.547
L470.407 398.409
L472.818 408.132
L475.184 418.618
L477.506 429.935
L478.097 433
L478.097 433" style="fill:none;stroke:#ffffff;stroke-linecap:round;stroke-width:3.0;"/>
   </g>
   <g id="line2d_19">
    <path clip-path="url(#p7ff5b81e1d)" d="
M93.4533 -1
L95.7509 13.0105
L98.117 26.0828
L100.528 38.1724
L102.983 49.3719
L105.483 59.7597
L108.028 69.4022
L110.617 78.3559
L113.251 86.6684
L115.886 94.257
L118.564 101.3
L121.243 107.721
L123.922 113.569
L126.6 118.886
L129.234 123.631
L131.868 127.927
L134.502 131.8
L137.092 135.216
L139.681 138.267
L142.226 140.926
L144.77 143.266
L147.315 145.305
L149.86 147.06
L152.405 148.546
L154.994 149.802
L157.628 150.831
L160.307 151.642
L163.119 152.258
L166.021 152.667
L169.102 152.876
L172.405 152.874
L175.977 152.647
L179.95 152.166
L184.415 151.395
L189.638 150.262
L196.156 148.609
L205.933 145.874
L224.55 140.653
L233.836 138.304
L242.229 136.408
L250.176 134.84
L257.855 133.551
L265.4 132.509
L272.811 131.709
L280.177 131.137
L287.499 130.79
L294.821 130.667
L302.142 130.767
L309.464 131.09
L316.786 131.636
L324.197 132.411
L331.652 133.416
L339.242 134.663
L347.055 136.174
L355.18 137.975
L363.886 140.136
L374.02 142.89
L399.958 150.07
L405.673 151.334
L410.405 152.159
L414.512 152.655
L418.173 152.88
L421.522 152.868
L424.647 152.639
L427.593 152.201
L430.406 151.559
L433.084 150.721
L435.718 149.663
L438.263 148.402
L440.763 146.917
L443.263 145.172
L445.763 143.151
L448.264 140.838
L450.764 138.217
L453.264 135.272
L455.808 131.924
L458.353 128.203
L460.898 124.088
L463.487 119.474
L466.077 114.4
L468.666 108.835
L471.255 102.742
L473.845 96.0791
L476.434 88.7949
L478.979 80.9731
L481.524 72.426
L484.024 63.2444
L486.479 53.3806
L488.89 42.779
L491.256 31.3741
L493.578 19.089
L495.855 5.83406
L496.947 -1
L496.947 -1" style="fill:none;stroke:#ffffff;stroke-linecap:round;stroke-width:3.0;"/>
   </g>
   <g id="line2d_20">
    <path clip-path="url(#p7ff5b81e1d)" d="
M93.4533 433
L95.7509 418.989
L98.117 405.917
L100.528 393.828
L102.983 382.628
L105.483 372.24
L108.028 362.598
L110.617 353.644
L113.251 345.332
L115.886 337.743
L118.564 330.7
L121.243 324.279
L123.922 318.431
L126.6 313.114
L129.234 308.369
L131.868 304.073
L134.502 300.2
L137.092 296.784
L139.681 293.733
L142.226 291.074
L144.77 288.734
L147.315 286.695
L149.86 284.94
L152.405 283.454
L154.994 282.198
L157.628 281.169
L160.307 280.358
L163.119 279.742
L166.021 279.333
L169.102 279.124
L172.405 279.126
L175.977 279.353
L179.95 279.834
L184.415 280.605
L189.638 281.738
L196.156 283.391
L205.933 286.126
L224.55 291.347
L233.836 293.696
L242.229 295.592
L250.176 297.16
L257.855 298.449
L265.4 299.491
L272.811 300.291
L280.177 300.863
L287.499 301.21
L294.821 301.333
L302.142 301.233
L309.464 300.91
L316.786 300.364
L324.197 299.589
L331.652 298.584
L339.242 297.337
L347.055 295.826
L355.18 294.025
L363.886 291.864
L374.02 289.11
L399.958 281.93
L405.673 280.666
L410.405 279.841
L414.512 279.345
L418.173 279.12
L421.522 279.132
L424.647 279.361
L427.593 279.799
L430.406 280.441
L433.084 281.279
L435.718 282.337
L438.263 283.598
L440.763 285.083
L443.263 286.828
L445.763 288.849
L448.264 291.162
L450.764 293.783
L453.264 296.728
L455.808 300.076
L458.353 303.797
L460.898 307.912
L463.487 312.526
L466.077 317.6
L468.666 323.165
L471.255 329.258
L473.845 335.921
L476.434 343.205
L478.979 351.027
L481.524 359.574
L484.024 368.756
L486.479 378.619
L488.89 389.221
L491.256 400.626
L493.578 412.911
L495.855 426.166
L496.947 433
L496.947 433" style="fill:none;stroke:#ffffff;stroke-linecap:round;stroke-width:3.0;"/>
   </g>
   <g id="line2d_21">
    <path clip-path="url(#p7ff5b81e1d)" d="
M76.3513 -1
L78.6074 15.4068
L80.9735 30.9882
L83.3843 45.4054
L85.8844 59.0273
L88.4738 71.9107
L91.1525 84.1079
L93.8758 95.489
L96.6884 106.306
L99.5903 116.596
L102.581 126.392
L105.662 135.727
L108.832 144.63
L112.091 153.126
L115.439 161.24
L118.877 168.995
L122.404 176.411
L126.064 183.59
L129.815 190.454
L133.654 197.02
L137.583 203.302
L141.645 209.378
L145.797 215.188
L146.422 215.97
L146.467 215.91
L150.753 210.356
L155.128 205.049
L159.592 199.98
L164.191 195.094
L168.878 190.436
L173.7 185.958
L178.611 181.7
L183.656 177.62
L188.79 173.755
L194.013 170.099
L199.371 166.62
L204.817 163.349
L210.353 160.283
L215.978 157.42
L221.693 154.759
L227.497 152.3
L233.39 150.044
L239.372 147.991
L245.444 146.144
L251.56 144.515
L257.721 143.103
L263.971 141.9
L270.266 140.916
L276.561 140.157
L282.9 139.616
L289.24 139.298
L295.579 139.2
L301.919 139.324
L308.259 139.669
L314.598 140.237
L320.893 141.023
L327.143 142.026
L333.349 143.246
L339.51 144.682
L345.626 146.336
L351.653 148.195
L357.635 150.272
L363.528 152.554
L369.332 155.038
L375.047 157.726
L380.672 160.617
L386.208 163.712
L391.654 167.012
L396.967 170.492
L402.19 174.178
L407.325 178.075
L412.325 182.15
L417.236 186.441
L422.013 190.91
L426.7 195.601
L431.254 200.472
L435.718 205.575
L440.049 210.861
L444.022 215.97
L444.112 215.85
L448.264 210.085
L452.282 204.126
L456.21 197.901
L460.05 191.397
L463.755 184.683
L467.371 177.672
L470.898 170.347
L474.336 162.692
L477.684 154.686
L480.943 146.308
L484.113 137.536
L487.194 128.345
L490.185 118.707
L493.087 108.593
L495.899 97.9705
L498.623 86.8056
L501.257 75.0613
L503.801 62.6981
L506.257 49.6743
L508.668 35.6749
L510.989 20.8721
L513.221 5.20946
L514.049 -1
L514.049 -1" style="fill:none;stroke:#ffffff;stroke-linecap:round;stroke-width:3.0;"/>
   </g>
   <g id="line2d_22">
    <path clip-path="url(#p7ff5b81e1d)" d="
M76.3513 433
L78.6074 416.593
L80.9735 401.012
L83.3843 386.595
L85.8844 372.973
L88.4738 360.089
L91.1525 347.892
L93.8758 336.511
L96.6884 325.694
L99.5903 315.404
L102.581 305.608
L105.662 296.273
L108.832 287.37
L112.091 278.874
L115.439 270.76
L118.877 263.005
L122.404 255.589
L126.064 248.41
L129.815 241.546
L133.654 234.98
L137.583 228.698
L141.645 222.622
L145.797 216.812
L146.422 216.03
L146.467 216.09
L150.753 221.644
L155.128 226.951
L159.592 232.02
L164.191 236.906
L168.878 241.564
L173.7 246.042
L178.611 250.3
L183.656 254.38
L188.79 258.245
L194.013 261.901
L199.371 265.38
L204.817 268.651
L210.353 271.717
L215.978 274.58
L221.693 277.241
L227.497 279.7
L233.39 281.956
L239.372 284.009
L245.444 285.856
L251.56 287.485
L257.721 288.897
L263.971 290.1
L270.266 291.084
L276.561 291.843
L282.9 292.384
L289.24 292.702
L295.579 292.8
L301.919 292.676
L308.259 292.331
L314.598 291.763
L320.893 290.977
L327.143 289.974
L333.349 288.754
L339.51 287.318
L345.626 285.664
L351.653 283.805
L357.635 281.728
L363.528 279.446
L369.332 276.962
L375.047 274.274
L380.672 271.383
L386.208 268.288
L391.654 264.988
L396.967 261.508
L402.19 257.822
L407.325 253.925
L412.325 249.85
L417.236 245.559
L422.013 241.09
L426.7 236.399
L431.254 231.528
L435.718 226.425
L440.049 221.139
L444.022 216.03
L444.112 216.15
L448.264 221.915
L452.282 227.874
L456.21 234.099
L460.05 240.603
L463.755 247.317
L467.371 254.328
L470.898 261.653
L474.336 269.308
L477.684 277.314
L480.943 285.692
L484.113 294.464
L487.194 303.655
L490.185 313.293
L493.087 323.407
L495.899 334.029
L498.623 345.194
L501.257 356.939
L503.801 369.302
L506.257 382.326
L508.668 396.325
L510.989 411.128
L513.221 426.791
L514.049 433
L514.049 433" style="fill:none;stroke:#ffffff;stroke-linecap:round;stroke-width:3.0;"/>
   </g>
   <g id="line2d_23">
    <path clip-path="url(#p7ff5b81e1d)" d="
M212.318 214.577
L212.585 211.1
L213.077 207.991
L213.791 204.949
L214.728 201.945
L215.889 198.975
L217.273 196.043
L218.88 193.152
L220.755 190.242
L222.854 187.402
L225.175 184.632
L227.765 181.894
L230.577 179.247
L233.613 176.697
L236.872 174.25
L240.354 171.914
L244.06 169.697
L247.944 167.633
L252.051 165.704
L256.292 163.958
L260.712 162.378
L265.266 160.986
L269.954 159.785
L274.731 158.789
L279.597 158.001
L284.552 157.423
L289.552 157.063
L294.597 156.925
L299.642 157.01
L304.642 157.316
L309.598 157.839
L314.509 158.581
L319.33 159.532
L324.063 160.691
L328.661 162.044
L333.125 163.586
L337.456 165.317
L341.608 167.214
L345.581 169.274
L349.331 171.466
L352.903 173.811
L356.251 176.275
L359.376 178.854
L362.234 181.497
L364.868 184.235
L367.234 187.008
L369.377 189.858
L371.296 192.782
L372.948 195.698
L374.377 198.668
L375.582 201.693
L376.52 204.627
L377.234 207.55
L377.725 210.404
L377.993 212.941
L378.082 214.577
L378.082 214.577" style="fill:none;stroke:#ffffff;stroke-linecap:round;stroke-width:3.0;"/>
   </g>
   <g id="line2d_24">
    <path clip-path="url(#p7ff5b81e1d)" d="
M212.318 217.423
L212.585 220.9
L213.077 224.009
L213.791 227.051
L214.728 230.055
L215.889 233.025
L217.273 235.957
L218.88 238.848
L220.755 241.758
L222.854 244.598
L225.175 247.368
L227.765 250.106
L230.577 252.753
L233.613 255.303
L236.872 257.75
L240.354 260.086
L244.06 262.303
L247.944 264.367
L252.051 266.296
L256.292 268.042
L260.712 269.622
L265.266 271.014
L269.954 272.215
L274.731 273.211
L279.597 273.999
L284.552 274.577
L289.552 274.937
L294.597 275.075
L299.642 274.99
L304.642 274.684
L309.598 274.161
L314.509 273.419
L319.33 272.468
L324.063 271.309
L328.661 269.956
L333.125 268.414
L337.456 266.683
L341.608 264.786
L345.581 262.726
L349.331 260.534
L352.903 258.189
L356.251 255.725
L359.376 253.146
L362.234 250.503
L364.868 247.765
L367.234 244.992
L369.377 242.142
L371.296 239.218
L372.948 236.302
L374.377 233.332
L375.582 230.307
L376.52 227.373
L377.234 224.45
L377.725 221.596
L377.993 219.059
L378.082 217.423
L378.082 217.423" style="fill:none;stroke:#ffffff;stroke-linecap:round;stroke-width:3.0;"/>
   </g>
   <g id="patch_3">
    <path d="
M72 43.2
L518.4 43.2" style="fill:none;stroke:#ffffff;stroke-linecap:square;stroke-linejoin:miter;"/>
   </g>
   <g id="patch_4">
    <path d="
M518.4 388.8
L518.4 43.2" style="fill:none;stroke:#ffffff;stroke-linecap:square;stroke-linejoin:miter;"/>
   </g>
   <g id="patch_5">
    <path d="
M72 388.8
L518.4 388.8" style="fill:none;stroke:#ffffff;stroke-linecap:square;stroke-linejoin:miter;"/>
   </g>
   <g id="patch_6">
    <path d="
M72 388.8
L72 43.2" style="fill:none;stroke:#ffffff;stroke-linecap:square;stroke-linejoin:miter;"/>
   </g>
  </g>
 </g>
 <defs>
  <clipPath id="p7ff5b81e1d">
   <rect height="345.6" width="446.4" x="72.0" y="43.2"/>
  </clipPath>
 </defs>
</svg>
