<?xml version="1.0" encoding="utf-8" standalone="no"?>
<!DOCTYPE svg PUBLIC "-//W3C//DTD SVG 1.1//EN"
  "http://www.w3.org/Graphics/SVG/1.1/DTD/svg11.dtd">
<!-- Created with matplotlib (http://matplotlib.org/) -->
<svg height="432pt" version="1.1" viewBox="0 0 576 432" width="576pt" xmlns="http://www.w3.org/2000/svg" xmlns:xlink="http://www.w3.org/1999/xlink">
 <defs>
  <style type="text/css">
*{stroke-linecap:butt;stroke-linejoin:round;}
  </style>
 </defs>
 <g id="figure_1">
  <g id="patch_1">
   <path d="
M0 432
L576 432
L576 0
L0 0
L0 432" style="fill:none;"/>
  </g>
  <g id="axes_1">
   <g id="patch_2">
    <path d="
M72 388.8
L518.4 388.8
L518.4 43.2
L72 43.2
L72 388.8" style="fill:none;"/>
   </g>
   <g id="matplotlib.axis_1">
    <g id="xtick_1">
     <g id="line2d_1">
      <defs>
       <path d="
M0 0
L0 -3" id="m82c5fd54db" style="stroke:#ffffff;"/>
      </defs>
      <g>
       <use style="fill:#ffffff;stroke:#ffffff;" x="72.0" xlink:href="#m82c5fd54db" y="388.8"/>
      </g>
     </g>
     <g id="line2d_2">
      <defs>
       <path d="
M0 0
L0 3" id="mc597b7b636" style="stroke:#ffffff;"/>
      </defs>
      <g>
       <use style="fill:#ffffff;stroke:#ffffff;" x="72.0" xlink:href="#mc597b7b636" y="43.2"/>
      </g>
     </g>
     <g id="text_1">
      <!-- 0.8 -->
      <defs>
       <path d="
M46.5781 19.9219
Q46.5781 27.7344 42.6875 32.0469
Q38.8125 36.375 31.7812 36.375
Q24.75 36.375 20.875 32.0469
Q17 27.7344 17 19.9219
Q17 12.0625 20.875 7.73438
Q24.75 3.42188 31.7812 3.42188
Q38.8125 3.42188 42.6875 7.73438
Q46.5781 12.0625 46.5781 19.9219
M44.5781 55.3281
Q44.5781 61.9688 41.2031 65.6719
Q37.8438 69.3906 31.7812 69.3906
Q25.7812 69.3906 22.3906 65.6719
Q19 61.9688 19 55.3281
Q19 48.6406 22.3906 44.9219
Q25.7812 41.2188 31.7812 41.2188
Q37.8438 41.2188 41.2031 44.9219
Q44.5781 48.6406 44.5781 55.3281
M39.3125 38.8125
Q47.6094 37.7031 52.25 32.6875
Q56.8906 27.6875 56.8906 19.9219
Q56.8906 9.67188 50.3906 4.125
Q43.8906 -1.42188 31.7812 -1.42188
Q19.7344 -1.42188 13.2031 4.125
Q6.6875 9.67188 6.6875 19.9219
Q6.6875 27.6875 11.3281 32.6875
Q15.9688 37.7031 24.3125 38.8125
Q16.9375 40.1406 13 44.4062
Q9.07812 48.6875 9.07812 55.3281
Q9.07812 64.1094 15.125 69.1562
Q21.1875 74.2188 31.7812 74.2188
Q42.3906 74.2188 48.4375 69.1562
Q54.5 64.1094 54.5 55.3281
Q54.5 48.6875 50.5625 44.4062
Q46.625 40.1406 39.3125 38.8125" id="BitstreamVeraSerif-Roman-38"/>
       <path d="
M31.7812 3.42188
Q39.2656 3.42188 42.9688 11.625
Q46.6875 19.8281 46.6875 36.375
Q46.6875 52.9844 42.9688 61.1875
Q39.2656 69.3906 31.7812 69.3906
Q24.3125 69.3906 20.5938 61.1875
Q16.8906 52.9844 16.8906 36.375
Q16.8906 19.8281 20.5938 11.625
Q24.3125 3.42188 31.7812 3.42188
M31.7812 -1.42188
Q19.9219 -1.42188 13.25 8.53125
Q6.59375 18.5 6.59375 36.375
Q6.59375 54.2969 13.25 64.25
Q19.9219 74.2188 31.7812 74.2188
Q43.7031 74.2188 50.3438 64.25
Q56.9844 54.2969 56.9844 36.375
Q56.9844 18.5 50.3438 8.53125
Q43.7031 -1.42188 31.7812 -1.42188" id="BitstreamVeraSerif-Roman-30"/>
       <path d="
M9.42188 5.07812
Q9.42188 7.8125 11.2812 9.71875
Q13.1406 11.625 15.9219 11.625
Q18.6094 11.625 20.5 9.71875
Q22.4062 7.8125 22.4062 5.07812
Q22.4062 2.39062 20.5 0.484375
Q18.6094 -1.42188 15.9219 -1.42188
Q13.1406 -1.42188 11.2812 0.453125
Q9.42188 2.34375 9.42188 5.07812" id="BitstreamVeraSerif-Roman-2e"/>
      </defs>
      <g style="fill:#ffffff;" transform="translate(58.88671875 405.9771875)scale(0.18 -0.18)">
       <use xlink:href="#BitstreamVeraSerif-Roman-30"/>
       <use x="63.623046875" xlink:href="#BitstreamVeraSerif-Roman-2e"/>
       <use x="95.41015625" xlink:href="#BitstreamVeraSerif-Roman-38"/>
      </g>
     </g>
    </g>
    <g id="xtick_2">
     <g id="line2d_3">
      <g>
       <use style="fill:#ffffff;stroke:#ffffff;" x="161.28" xlink:href="#m82c5fd54db" y="388.8"/>
      </g>
     </g>
     <g id="line2d_4">
      <g>
       <use style="fill:#ffffff;stroke:#ffffff;" x="161.28" xlink:href="#mc597b7b636" y="43.2"/>
      </g>
     </g>
     <g id="text_2">
      <!-- 0.9 -->
      <defs>
       <path d="
M46.7812 32.6719
Q43.5 29 39.25 27.1875
Q35.0156 25.3906 29.6875 25.3906
Q18.8438 25.3906 12.5625 31.9375
Q6.29688 38.4844 6.29688 49.8125
Q6.29688 60.8906 13.1094 67.5469
Q19.9219 74.2188 31.2969 74.2188
Q43.6562 74.2188 50.2656 65.0156
Q56.8906 55.8125 56.8906 38.7188
Q56.8906 19.5781 49.0156 9.07812
Q41.1562 -1.42188 26.9062 -1.42188
Q23.0469 -1.42188 18.7969 -0.6875
Q14.5469 0.046875 10.1094 1.51562
L10.1094 13.625
L15.5781 13.625
Q16.2188 8.6875 19.3906 6.04688
Q22.5625 3.42188 27.875 3.42188
Q37.3594 3.42188 41.9844 10.5625
Q46.625 17.7188 46.7812 32.6719
M30.9062 69.3906
Q23.9688 69.3906 20.2812 64.3281
Q16.6094 59.2812 16.6094 49.8125
Q16.6094 40.3281 20.2812 35.25
Q23.9688 30.1719 30.9062 30.1719
Q37.8438 30.1719 41.5312 35.0781
Q45.2188 39.9844 45.2188 49.2188
Q45.2188 58.9375 41.5 64.1562
Q37.7969 69.3906 30.9062 69.3906" id="BitstreamVeraSerif-Roman-39"/>
      </defs>
      <g style="fill:#ffffff;" transform="translate(148.16671875 405.9771875)scale(0.18 -0.18)">
       <use xlink:href="#BitstreamVeraSerif-Roman-30"/>
       <use x="63.623046875" xlink:href="#BitstreamVeraSerif-Roman-2e"/>
       <use x="95.41015625" xlink:href="#BitstreamVeraSerif-Roman-39"/>
      </g>
     </g>
    </g>
    <g id="xtick_3">
     <g id="line2d_5">
      <g>
       <use style="fill:#ffffff;stroke:#ffffff;" x="250.56" xlink:href="#m82c5fd54db" y="388.8"/>
      </g>
     </g>
     <g id="line2d_6">
      <g>
       <use style="fill:#ffffff;stroke:#ffffff;" x="250.56" xlink:href="#mc597b7b636" y="43.2"/>
      </g>
     </g>
     <g id="text_3">
      <!-- 1.0 -->
      <defs>
       <path d="
M14.2031 0
L14.2031 5.17188
L26.9062 5.17188
L26.9062 65.8281
L12.2031 56.2969
L12.2031 62.7031
L29.9844 74.2188
L36.7188 74.2188
L36.7188 5.17188
L49.4219 5.17188
L49.4219 0
z
" id="BitstreamVeraSerif-Roman-31"/>
      </defs>
      <g style="fill:#ffffff;" transform="translate(237.943125 405.9771875)scale(0.18 -0.18)">
       <use xlink:href="#BitstreamVeraSerif-Roman-31"/>
       <use x="63.623046875" xlink:href="#BitstreamVeraSerif-Roman-2e"/>
       <use x="95.41015625" xlink:href="#BitstreamVeraSerif-Roman-30"/>
      </g>
     </g>
    </g>
    <g id="xtick_4">
     <g id="line2d_7">
      <g>
       <use style="fill:#ffffff;stroke:#ffffff;" x="339.84" xlink:href="#m82c5fd54db" y="388.8"/>
      </g>
     </g>
     <g id="line2d_8">
      <g>
       <use style="fill:#ffffff;stroke:#ffffff;" x="339.84" xlink:href="#mc597b7b636" y="43.2"/>
      </g>
     </g>
     <g id="text_4">
      <!-- 1.1 -->
      <g style="fill:#ffffff;" transform="translate(327.90375 405.9771875)scale(0.18 -0.18)">
       <use xlink:href="#BitstreamVeraSerif-Roman-31"/>
       <use x="63.623046875" xlink:href="#BitstreamVeraSerif-Roman-2e"/>
       <use x="95.41015625" xlink:href="#BitstreamVeraSerif-Roman-31"/>
      </g>
     </g>
    </g>
    <g id="xtick_5">
     <g id="line2d_9">
      <g>
       <use style="fill:#ffffff;stroke:#ffffff;" x="429.12" xlink:href="#m82c5fd54db" y="388.8"/>
      </g>
     </g>
     <g id="line2d_10">
      <g>
       <use style="fill:#ffffff;stroke:#ffffff;" x="429.12" xlink:href="#mc597b7b636" y="43.2"/>
      </g>
     </g>
     <g id="text_5">
      <!-- 1.2 -->
      <defs>
       <path d="
M12.7969 55.5156
L7.32812 55.5156
L7.32812 68.5
Q12.5469 71.2969 17.8438 72.75
Q23.1406 74.2188 28.2188 74.2188
Q39.5938 74.2188 46.1875 68.7031
Q52.7812 63.1875 52.7812 53.7188
Q52.7812 43.0156 37.8438 28.125
Q36.6719 27 36.0781 26.4219
L17.6719 8.01562
L48.0938 8.01562
L48.0938 17
L53.8125 17
L53.8125 0
L6.78125 0
L6.78125 5.32812
L28.9062 27.3906
Q36.2344 34.7188 39.3594 40.8438
Q42.4844 46.9688 42.4844 53.7188
Q42.4844 61.0781 38.6406 65.2344
Q34.8125 69.3906 28.0781 69.3906
Q21.0938 69.3906 17.2812 65.9219
Q13.4844 62.4531 12.7969 55.5156" id="BitstreamVeraSerif-Roman-32"/>
      </defs>
      <g style="fill:#ffffff;" transform="translate(416.78859375 405.9771875)scale(0.18 -0.18)">
       <use xlink:href="#BitstreamVeraSerif-Roman-31"/>
       <use x="63.623046875" xlink:href="#BitstreamVeraSerif-Roman-2e"/>
       <use x="95.41015625" xlink:href="#BitstreamVeraSerif-Roman-32"/>
      </g>
     </g>
    </g>
    <g id="xtick_6">
     <g id="line2d_11">
      <g>
       <use style="fill:#ffffff;stroke:#ffffff;" x="518.4" xlink:href="#m82c5fd54db" y="388.8"/>
      </g>
     </g>
     <g id="line2d_12">
      <g>
       <use style="fill:#ffffff;stroke:#ffffff;" x="518.4" xlink:href="#mc597b7b636" y="43.2"/>
      </g>
     </g>
     <g id="text_6">
      <!-- 1.3 -->
      <defs>
       <path d="
M9.71875 69.8281
Q15.4375 71.9688 20.6719 73.0938
Q25.9219 74.2188 30.5156 74.2188
Q41.2188 74.2188 47.2188 69.5938
Q53.2188 64.9844 53.2188 56.7812
Q53.2188 50.2031 49.0625 45.7812
Q44.9219 41.3594 37.3125 39.7969
Q46.2969 38.5312 51.25 33.2812
Q56.2031 28.0312 56.2031 19.6719
Q56.2031 9.46875 49.3438 4.01562
Q42.4844 -1.42188 29.5938 -1.42188
Q23.875 -1.42188 18.4219 -0.1875
Q12.9844 1.03125 7.625 3.51562
L7.625 17.6719
L13.0938 17.6719
Q13.5781 10.6406 17.8281 7.03125
Q22.0781 3.42188 29.7812 3.42188
Q37.25 3.42188 41.5781 7.73438
Q45.9062 12.0625 45.9062 19.5781
Q45.9062 28.1719 41.4531 32.5938
Q37.0156 37.0156 28.4219 37.0156
L23.7812 37.0156
L23.7812 42
L26.2188 42
Q34.7656 42 39.0312 45.5312
Q43.3125 49.0781 43.3125 56.2031
Q43.3125 62.5938 39.7969 65.9844
Q36.2812 69.3906 29.6875 69.3906
Q23.0938 69.3906 19.4531 66.2656
Q15.8281 63.1406 15.1875 56.9844
L9.71875 56.9844
z
" id="BitstreamVeraSerif-Roman-33"/>
      </defs>
      <g style="fill:#ffffff;" transform="translate(505.8534375 405.9771875)scale(0.18 -0.18)">
       <use xlink:href="#BitstreamVeraSerif-Roman-31"/>
       <use x="63.623046875" xlink:href="#BitstreamVeraSerif-Roman-2e"/>
       <use x="95.41015625" xlink:href="#BitstreamVeraSerif-Roman-33"/>
      </g>
     </g>
    </g>
   </g>
   <g id="patch_3">
    <path clip-path="url(#p7ff5b81e1d)" d="
M366.624 116.327
L339.84 118.321
L339.84 116.427
L161.28 116.427
L161.28 116.228
L339.84 116.228
L339.84 114.334
z
" style="fill:#008000;stroke:#008000;stroke-linejoin:miter;stroke-width:2.0;"/>
   </g>
   <g id="line2d_13">
    <path clip-path="url(#p7ff5b81e1d)" d="
M74.4704 225.934
L98.4209 220.807
L160.793 207.291
L174.496 204.646
L185.86 202.669
L196.768 201.007
L205.834 199.833
L214.699 198.889
L223.414 198.175
L232.023 197.689
L240.568 197.43
L249.083 197.396
L257.602 197.584
L266.158 197.991
L274.778 198.615
L283.492 199.453
L292.327 200.502
L302.829 201.987
L313.582 203.749
L324.638 205.784
L337.712 208.436
L351.338 211.431
L367.449 215.205
L386.502 219.895
L413.469 226.779
L515.459 253.108
L515.459 253.108" style="fill:none;stroke:#4c72b0;stroke-linecap:round;stroke-width:1.5;"/>
   </g>
   <g id="line2d_14">
    <path clip-path="url(#p7ff5b81e1d)" d="
M208.907 198.675
L216.808 197.507
L224.673 196.56
L232.539 195.835
L240.439 195.332
L248.403 195.052
L256.459 194.997
L264.632 195.164
L272.947 195.554
L281.426 196.165
L290.092 196.996
L298.97 198.045
L309.626 199.543
L320.642 201.331
L332.064 203.407
L345.675 206.129
L359.959 209.219
L376.946 213.133
L397.134 218.022
L423.5 224.648
L471.114 236.887
L518.165 248.981
L518.165 248.981" style="fill:none;stroke:#55a868;stroke-linecap:round;stroke-width:1.5;"/>
   </g>
   <g id="line2d_15">
    <path clip-path="url(#p7ff5b81e1d)" d="
M508.787 246.58
L511.883 247.374
L515.008 248.174
L518.165 248.981" style="fill:none;stroke:#c44e52;stroke-linecap:round;stroke-width:1.5;"/>
   </g>
   <g id="line2d_16">
    <path clip-path="url(#p7ff5b81e1d)" d="
M73.8353 231.457
L91.7888 227.32
L110.155 222.858
L134.314 216.738
L163.589 209.343
L177.504 206.069
L189.264 203.549
L199.221 201.652
L208.967 200.046
L217.216 198.906
L225.418 197.984
L233.614 197.284
L241.842 196.805
L250.135 196.549
L258.525 196.515
L267.043 196.703
L275.716 197.113
L284.572 197.744
L293.639 198.595
L304.52 199.864
L315.771 201.429
L327.441 203.286
L339.581 205.435
L354.105 208.246
L369.41 211.434
L387.692 215.471
L409.519 220.522
L438.163 227.384
L487.194 239.396
L518.185 247.027
L518.185 247.027" style="fill:none;stroke:#8172b2;stroke-linecap:round;stroke-width:1.5;"/>
   </g>
   <g id="line2d_17">
    <path clip-path="url(#p7ff5b81e1d)" d="
M72.6223 222.814
L145.838 209.532
L161.978 206.912
L175.158 204.984
L187.622 203.39
L197.84 202.286
L207.704 201.421
L217.28 200.792
L226.625 200.393
L235.788 200.222
L244.816 200.275
L253.751 200.546
L262.632 201.032
L271.496 201.729
L280.378 202.632
L290.81 203.939
L301.37 205.513
L312.113 207.349
L323.1 209.438
L336.035 212.131
L351.189 215.541
L368.96 219.794
L391.912 225.537
L437.723 237.299
L484.623 249.242
L517.712 257.493
L517.712 257.493" style="fill:none;stroke:#ccb974;stroke-linecap:round;stroke-width:1.5;"/>
   </g>
   <g id="line2d_18">
    <path clip-path="url(#p7ff5b81e1d)" d="
M153.284 203.437
L166.967 199.97
L176.956 197.644
L186.485 195.646
L195.638 193.976
L203.234 192.807
L210.638 191.877
L217.879 191.187
L224.978 190.732
L231.953 190.511
L238.821 190.52
L245.591 190.754
L252.272 191.208
L258.871 191.877
L265.393 192.755
L271.842 193.834
L278.223 195.109
L284.54 196.57
L291.837 198.501
L299.064 200.663
L306.236 203.041
L313.37 205.623
L321.507 208.804
L330.694 212.652
L341.036 217.23
L358.225 225.13
L376.874 233.635
L389.694 239.224
L400.823 243.84
L411.335 247.986
L422.692 252.237
L435.018 256.6
L448.446 261.088
L463.114 265.715
L476.781 269.806
L494.133 274.745
L513.145 279.888
L516.005 280.641
L516.005 280.641" style="fill:none;stroke:#64b5cd;stroke-linecap:round;stroke-width:1.5;"/>
   </g>
   <g id="line2d_19">
    <path clip-path="url(#p7ff5b81e1d)" d="
M73.3387 212.089
L91.7764 211.131
L108.706 210.446
L124.28 210.018
L138.626 209.827
L151.853 209.857
L164.055 210.091
L175.313 210.513
L185.697 211.109
L195.269 211.862
L204.084 212.76
L212.192 213.788
L219.636 214.932
L226.458 216.18
L232.694 217.519
L238.378 218.937
L243.545 220.421
L248.223 221.962
L252.444 223.547
L256.944 225.493
L260.873 227.471
L264.28 229.463
L267.21 231.454
L269.71 233.429
L271.827 235.374
L273.876 237.587
L275.545 239.722
L277.085 242.045
L278.913 245.252
L280.814 248.504
L281.872 249.916
L282.927 251.007
L284.18 251.99
L285.69 252.864
L287.517 253.632
L289.724 254.299
L292.374 254.869
L296.113 255.424
L300.652 255.872
L306.96 256.277
L316.779 256.668
L336.273 257.17
L368.83 258.027
L394.6 258.942
L419.49 260.054
L444.772 261.406
L469.521 262.932
L496.886 264.837
L518.12 266.46
L518.12 266.46" style="fill:none;stroke:#4c72b0;stroke-linecap:round;stroke-width:1.5;"/>
   </g>
   <g id="line2d_20">
    <path clip-path="url(#p7ff5b81e1d)" d="
M74.234 251.939
L134.267 250.735
L155.364 250.102
L169.815 249.474
L182.103 248.717
L191.766 247.909
L200.468 246.971
L209.39 245.778
L218.746 244.295
L234.221 241.562
L248.472 239.126
L259.23 237.511
L270.079 236.121
L280.849 234.977
L291.283 234.08
L302.781 233.306
L315.463 232.687
L329.455 232.251
L342.586 232.048
L356.854 232.025
L372.342 232.204
L389.137 232.609
L407.325 233.262
L426.994 234.189
L448.232 235.416
L471.127 236.969
L495.769 238.878
L517.702 240.76
L517.702 240.76" style="fill:none;stroke:#55a868;stroke-linecap:round;stroke-width:1.5;"/>
   </g>
   <g id="line2d_21">
    <path clip-path="url(#p7ff5b81e1d)" d="
M190.226 225.373
L200.661 220.681
L207.813 217.691
L214.308 215.195
L221.102 212.836
L227.219 210.938
L233.653 209.168
L240.447 207.541
L247.646 206.069
L255.292 204.765
L263.427 203.641
L272.093 202.708
L281.334 201.978
L291.192 201.463
L301.71 201.174
L312.932 201.121
L324.904 201.314
L337.672 201.765
L351.283 202.484
L365.786 203.481
L381.232 204.768
L397.674 206.354
L415.166 208.253
L433.766 210.475
L453.531 213.034
L478.145 216.464
L504.529 220.392
L516.403 222.235
L516.403 222.235" style="fill:none;stroke:#c44e52;stroke-linecap:round;stroke-width:1.5;"/>
   </g>
   <g id="line2d_22"/>
   <g id="line2d_23">
    <path clip-path="url(#p7ff5b81e1d)" d="
M226.018 241.296
L246.803 238.343
L259.577 236.776
L271.14 235.588
L282.472 234.643
L294.981 233.84
L307.032 233.284
L320.245 232.893
L334.747 232.696
L350.668 232.724
L368.141 233.011
L384.456 233.488
L402.099 234.202
L421.156 235.177
L441.718 236.437
L463.874 238.01
L487.712 239.92
L513.322 242.198
L517.768 242.615
L517.768 242.615" style="fill:none;stroke:#ccb974;stroke-linecap:round;stroke-width:1.5;"/>
   </g>
   <g id="line2d_24">
    <path clip-path="url(#p7ff5b81e1d)" d="
M212.599 241.888
L217.769 238.223
L221.986 235.513
L226.307 233.028
L230.613 230.825
L234.748 228.934
L239.341 227.058
L244.436 225.216
L250.08 223.423
L256.321 221.699
L263.209 220.062
L270.797 218.53
L277.692 217.347
L285.142 216.261
L293.18 215.283
L301.84 214.424
L311.156 213.695
L321.164 213.107
L331.902 212.672
L343.405 212.401
L355.712 212.304
L368.863 212.394
L382.896 212.683
L397.852 213.181
L413.772 213.901
L430.696 214.855
L448.666 216.057
L471.671 217.843
L496.315 220.026
L518.156 222.166
L518.156 222.166" style="fill:none;stroke:#64b5cd;stroke-linecap:round;stroke-width:1.5;"/>
   </g>
   <g id="line2d_25"/>
   <g id="line2d_26">
    <path clip-path="url(#p7ff5b81e1d)" d="
M74.4813 232.934
L88.8357 229.186
L103.995 224.978
L119.571 220.406
L138.564 214.579
L166.716 205.907
L178.685 202.472
L188.853 199.805
L197.494 197.778
L204.769 196.274
L211.963 194.989
L219.112 193.926
L226.244 193.086
L233.384 192.47
L240.554 192.079
L247.774 191.912
L255.059 191.969
L262.424 192.248
L269.883 192.748
L277.449 193.466
L285.134 194.398
L294.269 195.754
L303.607 197.391
L313.173 199.304
L322.994 201.486
L334.575 204.3
L346.591 207.447
L360.716 211.373
L379.018 216.71
L406.261 224.921
L454.919 239.598
L484.66 248.309
L512.295 256.174
L518.169 257.818
L518.169 257.818" style="fill:none;stroke:#55a868;stroke-linecap:round;stroke-width:1.5;"/>
   </g>
   <g id="line2d_27">
    <path clip-path="url(#p7ff5b81e1d)" d="
M74.24 239.636
L88.8381 236.211
L102.142 232.866
L116.273 229.081
L130.899 224.93
L148.926 219.568
L177.559 211.015
L189.407 207.739
L198.401 205.461
L207.304 203.432
L214.927 201.898
L222.592 200.56
L230.344 199.425
L238.223 198.495
L246.266 197.777
L254.508 197.274
L262.983 196.99
L271.723 196.927
L280.758 197.089
L290.119 197.478
L299.837 198.096
L309.943 198.946
L320.47 200.029
L333.327 201.59
L346.858 203.474
L361.125 205.684
L378.415 208.615
L396.859 211.984
L416.573 215.801
L440.43 220.645
L469.256 226.735
L504.128 234.339
L517.71 237.35
L517.71 237.35" style="fill:none;stroke:#c44e52;stroke-linecap:round;stroke-width:1.5;"/>
   </g>
   <g id="line2d_28">
    <path clip-path="url(#p7ff5b81e1d)" d="
M72.76 211.172
L74.2821 211.99
L75.6787 212.814
L78.0971 214.473
L80.0186 216.146
L81.4463 217.828
L82.3827 219.515
L82.6674 220.359
L82.83 221.203
L82.8707 222.045
L82.7897 222.887
L82.5872 223.726
L82.2633 224.564
L81.2516 226.228
L79.755 227.877
L77.7736 229.505
L75.307 231.109
L72.3544 232.684
L74.24 239.636
L88.8381 236.211
L102.142 232.866
L116.273 229.081
L130.899 224.93
L148.926 219.568
L177.559 211.015
L189.407 207.739
L198.401 205.461
L207.304 203.432
L214.927 201.898
L222.592 200.56
L230.344 199.425
L238.223 198.495
L246.266 197.777
L254.508 197.274
L262.983 196.99
L271.723 196.927
L280.758 197.089
L290.119 197.478
L299.837 198.096
L309.943 198.946
L320.47 200.029
L333.327 201.59
L346.858 203.474
L361.125 205.684
L378.415 208.615
L396.859 211.984
L416.573 215.801
L440.43 220.645
L469.256 226.735
L504.128 234.339
L517.71 237.35
L517.71 237.35" style="fill:none;stroke:#8172b2;stroke-linecap:round;stroke-width:1.5;"/>
   </g>
   <g id="line2d_29">
    <path clip-path="url(#p7ff5b81e1d)" d="
M72.5232 238.132
L87.6894 234.703
L103.708 230.831
L120.173 226.593
L138.546 221.61
L178.803 210.562
L189.906 207.787
L199.382 205.623
L208.739 203.715
L216.731 202.291
L224.752 201.067
L232.847 200.047
L241.06 199.237
L249.429 198.639
L257.992 198.257
L266.785 198.095
L275.843 198.154
L285.198 198.438
L294.885 198.948
L304.937 199.687
L315.388 200.656
L328.132 202.081
L341.528 203.825
L355.636 205.893
L370.526 208.286
L388.591 211.429
L407.888 215.013
L431.228 219.588
L459.419 225.369
L493.517 232.619
L517.086 237.745
L517.086 237.745" style="fill:none;stroke:#ccb974;stroke-linecap:round;stroke-width:1.5;"/>
   </g>
   <g id="line2d_30">
    <path clip-path="url(#p7ff5b81e1d)" d="
M72 153.979
L76.5091 154.932
L81.0182 155.889
L85.5273 156.848
L90.0364 157.809
L94.5455 158.772
L99.0545 159.736
L103.564 160.7
L108.073 161.664
L112.582 162.627
L117.091 163.587
L121.6 164.545
L126.109 165.498
L130.618 166.446
L135.127 167.387
L139.636 168.32
L144.145 169.243
L148.655 170.154
L153.164 171.052
L157.673 171.934
L162.182 172.799
L166.691 173.643
L171.2 174.463
L175.709 175.258
L180.218 176.023
L184.727 176.755
L189.236 177.451
L193.745 178.106
L198.255 178.716
L202.764 179.278
L207.273 179.786
L211.782 180.236
L216.291 180.623
L220.8 180.943
L225.309 181.192
L229.818 181.364
L234.327 181.457
L238.836 181.466
L243.345 181.388
L247.855 181.222
L252.364 180.964
L256.873 180.615
L261.382 180.172
L265.891 179.637
L270.4 179.009
L274.909 178.291
L279.418 177.483
L283.927 176.587
L288.436 175.606
L292.945 174.541
L297.455 173.396
L301.964 172.174
L306.473 170.875
L310.982 169.504
L315.491 168.063
L320 166.553
L324.509 164.977
L329.018 163.338
L333.527 161.636
L338.036 159.874
L342.545 158.053
L347.055 156.174
L351.564 154.24
L356.073 152.249
L360.582 150.205
L365.091 148.107
L369.6 145.956
L374.109 143.752
L378.618 141.496
L383.127 139.188
L387.636 136.828
L392.145 134.417
L396.655 131.953
L401.164 129.438
L405.673 126.87
L410.182 124.25
L414.691 121.577
L419.2 118.85
L423.709 116.068
L428.218 113.232
L432.727 110.34
L437.236 107.392
L441.745 104.386
L446.255 101.322
L450.764 98.1978
L455.273 95.0133
L459.782 91.7668
L464.291 88.457
L468.8 85.0826
L473.309 81.642
L477.818 78.1337
L482.327 74.5559
L486.836 70.9069
L491.345 67.1848
L495.855 63.3877
L500.364 59.5135
L504.873 55.56
L509.382 51.5249
L513.891 47.4057
L518.4 43.2" style="fill:none;stroke:#ffffff;stroke-dasharray:6.000000,6.000000;stroke-dashoffset:0.0;stroke-width:3.0;"/>
   </g>
   <g id="line2d_31">
    <path clip-path="url(#p7ff5b81e1d)" d="
M72 278.021
L76.5091 277.068
L81.0182 276.111
L85.5273 275.152
L90.0364 274.191
L94.5455 273.228
L99.0545 272.264
L103.564 271.3
L108.073 270.336
L112.582 269.373
L117.091 268.413
L121.6 267.455
L126.109 266.502
L130.618 265.554
L135.127 264.613
L139.636 263.68
L144.145 262.757
L148.655 261.846
L153.164 260.948
L157.673 260.066
L162.182 259.201
L166.691 258.357
L171.2 257.537
L175.709 256.742
L180.218 255.977
L184.727 255.245
L189.236 254.549
L193.745 253.894
L198.255 253.284
L202.764 252.722
L207.273 252.214
L211.782 251.764
L216.291 251.377
L220.8 251.057
L225.309 250.808
L229.818 250.636
L234.327 250.543
L238.836 250.534
L243.345 250.612
L247.855 250.778
L252.364 251.036
L256.873 251.385
L261.382 251.828
L265.891 252.363
L270.4 252.991
L274.909 253.709
L279.418 254.517
L283.927 255.413
L288.436 256.394
L292.945 257.459
L297.455 258.604
L301.964 259.826
L306.473 261.125
L310.982 262.496
L315.491 263.937
L320 265.447
L324.509 267.023
L329.018 268.662
L333.527 270.364
L338.036 272.126
L342.545 273.947
L347.055 275.826
L351.564 277.76
L356.073 279.751
L360.582 281.795
L365.091 283.893
L369.6 286.044
L374.109 288.248
L378.618 290.504
L383.127 292.812
L387.636 295.172
L392.145 297.583
L396.655 300.047
L401.164 302.562
L405.673 305.13
L410.182 307.75
L414.691 310.423
L419.2 313.15
L423.709 315.932
L428.218 318.768
L432.727 321.66
L437.236 324.608
L441.745 327.614
L446.255 330.678
L450.764 333.802
L455.273 336.987
L459.782 340.233
L464.291 343.543
L468.8 346.917
L473.309 350.358
L477.818 353.866
L482.327 357.444
L486.836 361.093
L491.345 364.815
L495.855 368.612
L500.364 372.486
L504.873 376.44
L509.382 380.475
L513.891 384.594
L518.4 388.8" style="fill:none;stroke:#ffffff;stroke-dasharray:6.000000,6.000000;stroke-dashoffset:0.0;stroke-width:3.0;"/>
   </g>
   <g id="line2d_32">
    <path clip-path="url(#p7ff5b81e1d)" d="
M250.56 250.922
L250.56 181.078" style="fill:none;stroke:#ffffff;stroke-dasharray:1.000000,3.000000;stroke-dashoffset:0.0;stroke-width:3.0;"/>
   </g>
   <g id="line2d_33">
    <path clip-path="url(#p7ff5b81e1d)" d="
M-1535.04 250.922" style="fill:none;stroke:#ffffff;stroke-dasharray:1.000000,3.000000;stroke-dashoffset:0.0;stroke-width:3.0;"/>
   </g>
   <g id="patch_4">
    <path d="
M72 43.2
L518.4 43.2" style="fill:none;stroke:#ffffff;stroke-linecap:square;stroke-linejoin:miter;"/>
   </g>
   <g id="patch_5">
    <path d="
M518.4 388.8
L518.4 43.2" style="fill:none;stroke:#ffffff;stroke-linecap:square;stroke-linejoin:miter;"/>
   </g>
   <g id="patch_6">
    <path d="
M72 388.8
L518.4 388.8" style="fill:none;stroke:#ffffff;stroke-linecap:square;stroke-linejoin:miter;"/>
   </g>
   <g id="patch_7">
    <path d="
M72 388.8
L72 43.2" style="fill:none;stroke:#ffffff;stroke-linecap:square;stroke-linejoin:miter;"/>
   </g>
  </g>
 </g>
 <defs>
  <clipPath id="p7ff5b81e1d">
   <rect height="345.6" width="446.4" x="72.0" y="43.2"/>
  </clipPath>
 </defs>
</svg>
